<?xml version="1.0" encoding="utf-8"?>
<!-- Generator: Adobe Illustrator 25.4.1, SVG Export Plug-In . SVG Version: 6.00 Build 0)  -->
<svg version="1.1" id="Слой_1" xmlns="http://www.w3.org/2000/svg" xmlns:xlink="http://www.w3.org/1999/xlink" x="0px" y="0px"
	 viewBox="0 0 24 24" style="enable-background:new 0 0 24 24;" xml:space="preserve">
<style type="text/css">
	.st0{fill-rule:evenodd;clip-rule:evenodd;fill:#333333;}
</style>
<g>
	<path class="st0" d="M1.2,7c0-3.2,2.6-5.8,5.8-5.8h10c3.2,0,5.8,2.6,5.8,5.8v10c0,3.2-2.6,5.8-5.8,5.8H7c-3.2,0-5.8-2.6-5.8-5.8V7z
		 M7,2.8C4.7,2.8,2.8,4.7,2.8,7v10c0,2.3,1.9,4.2,4.2,4.2h10c2.3,0,4.2-1.9,4.2-4.2V7c0-2.3-1.9-4.2-4.2-4.2H7z"/>
	<path class="st0" d="M12.5,10.2c0.4,0,0.8,0.3,0.8,0.8v6c0,0.4-0.3,0.8-0.8,0.8s-0.8-0.3-0.8-0.8v-6C11.8,10.6,12.1,10.2,12.5,10.2
		z"/>
	<path class="st0" d="M13.2,11c0,0.4-0.3,0.8-0.8,0.8h-2c-0.4,0-0.8-0.3-0.8-0.8s0.3-0.8,0.8-0.8h2C12.9,10.2,13.2,10.6,13.2,11z"/>
	<path class="st0" d="M12.5,6.2c0.4,0,0.8,0.3,0.8,0.8v1c0,0.4-0.3,0.8-0.8,0.8S11.8,8.4,11.8,8V7C11.8,6.6,12.1,6.2,12.5,6.2z"/>
</g>
</svg>
