<?xml version="1.0" encoding="utf-8"?>
<!-- Generator: Adobe Illustrator 25.4.1, SVG Export Plug-In . SVG Version: 6.00 Build 0)  -->
<svg version="1.1" id="Слой_1" xmlns="http://www.w3.org/2000/svg" xmlns:xlink="http://www.w3.org/1999/xlink" x="0px" y="0px"
	 viewBox="0 0 500 500" style="enable-background:new 0 0 500 500;" xml:space="preserve">
<style type="text/css">
	.st0{fill:#009245;}
	.st1{fill:#F7931E;}
	.st2{fill:#333333;}
</style>
<path class="st0" d="M325.28,7.62l61.78,116.44c1.74,3.28-0.64,7.24-4.36,7.24h-69.62c-1.8,0-3.45,0.98-4.32,2.55L193.08,343.71
	c-0.87,1.57-2.52,2.55-4.32,2.55h-60.61c-3.84,0-6.21-4.2-4.22-7.49l122.11-201.2c2.01-3.31-0.4-7.53-4.27-7.49l-98.76,1.04
	c-4.93,0.05-6.88-6.36-2.75-9.06L318.22,5.8C320.65,4.22,323.92,5.06,325.28,7.62z"/>
<path class="st1" d="M183.62,492.13l-59.92-112.92c-2.25-4.25,0.82-9.36,5.63-9.36h66.37c2.32,0,4.46-1.26,5.58-3.3l114.86-208.36
	c1.12-2.03,3.26-3.3,5.58-3.3h57.19c4.97,0,8.03,5.43,5.45,9.68L264.94,361.36c-2.59,4.27,0.52,9.74,5.52,9.68l91.22-0.96
	c6.37-0.07,8.89,8.23,3.55,11.71L192.74,494.48C189.6,496.53,185.38,495.44,183.62,492.13z"/>
<path class="st2" d="M167.66,150.96l-69.23-1.84c-3.09-0.08-6.13,0.82-8.67,2.59l-57,39.58c-6.14,4.26-8.04,12.49-4.39,19.02
	l49.49,88.52c5.45,9.74,19.39,9.95,25.13,0.38l2.29-3.82c2.75-4.59,2.76-10.32,0.02-14.91l-37.31-62.52
	c-3.82-6.4-2.17-14.66,3.82-19.11l25.88-19.2c2.72-2.02,6.05-3.02,9.43-2.84l59.38,3.18c5.41,0.29,10.53-2.45,13.28-7.11l0,0
	C185.41,163.33,178.73,151.25,167.66,150.96z"/>
<path class="st2" d="M442.34,255.82h-10.3c-2.38,0-4.58-1.23-5.84-3.24l-7.65-12.28c-2.88-4.62-9.73-4.22-12.06,0.7l-11.58,24.47
	c-2.16,4.57,1.17,9.83,6.22,9.83h54.92c2.65,0,5.06,1.52,6.21,3.91l12.56,26.22c1.49,3.12,0.44,6.86-2.46,8.75l-41.71,27.06
	c-1.12,0.72-2.42,1.11-3.74,1.11h-83.44c-5.15,0-8.48-5.45-6.12-10.03l7.09-13.76c1.18-2.29,3.54-3.73,6.12-3.73h78.15
	c1.83,0,3.58-0.72,4.87-2.02h0c4.33-4.33,1.26-11.75-4.87-11.75H365.2c-5.08,0-8.41-5.32-6.19-9.89l48.27-99.22
	c2.46-5.05,9.61-5.19,12.26-0.23l28.86,54C450.86,250.28,447.53,255.82,442.34,255.82z"/>
</svg>
