<?xml version="1.0" encoding="utf-8"?>
<!-- Generator: Adobe Illustrator 25.4.1, SVG Export Plug-In . SVG Version: 6.00 Build 0)  -->
<svg version="1.1"
	 id="svg1341" xmlns:cc="http://creativecommons.org/ns#" xmlns:dc="http://purl.org/dc/elements/1.1/" xmlns:inkscape="http://www.inkscape.org/namespaces/inkscape" xmlns:rdf="http://www.w3.org/1999/02/22-rdf-syntax-ns#" xmlns:sodipodi="http://sodipodi.sourceforge.net/DTD/sodipodi-0.dtd" xmlns:svg="http://www.w3.org/2000/svg"
	 xmlns="http://www.w3.org/2000/svg" xmlns:xlink="http://www.w3.org/1999/xlink" x="0px" y="0px" viewBox="0 0 874 500"
	 style="enable-background:new 0 0 874 500;" xml:space="preserve">
<style type="text/css">
	.st0{fill-rule:evenodd;clip-rule:evenodd;fill:#333333;fill-opacity:0.9412;}
	.st1{fill-rule:evenodd;clip-rule:evenodd;fill-opacity:0.9412;}
	.st2{fill:none;stroke:#333333;stroke-width:8.5261;}
</style>
<defs>
	
		<inkscape:perspective  id="perspective79" inkscape:persp3d-origin="372.04724 : 350.78739 : 1" inkscape:vp_x="0 : 526.18109 : 1" inkscape:vp_y="0 : 1000 : 0" inkscape:vp_z="744.09448 : 526.18109 : 1" sodipodi:type="inkscape:persp3d">
		</inkscape:perspective>
</defs>
<sodipodi:namedview  bordercolor="#666666" borderopacity="1.0" id="base" inkscape:current-layer="layer1" inkscape:cx="372.04724" inkscape:cy="526.18109" inkscape:document-units="px" inkscape:pageopacity="0.0" inkscape:pageshadow="2" inkscape:window-height="825" inkscape:window-width="1439" inkscape:window-x="1" inkscape:window-y="49" inkscape:zoom="0.56729519" pagecolor="#ffffff" showgrid="false">
	</sodipodi:namedview>
<g id="layer1" inkscape:groupmode="layer" inkscape:label="Layer 1">
	<g id="g3413">
		<path id="path74" class="st0" d="M153.6,80.2c0,0-59.3,258.8-59.3,258.8c0,0,0,0,0.1,0h274.4c0,0,142.7,0,142.7,0
			c-17-1.5-30.4-7.5-38.4-18.3c-1.5-2-2.7-4.2-3.8-6.4c-0.7-1.7-1.3-3.4-2-5.1c-1.7-5.4-2.4-11.4-2.1-17.9
			c0.9-17.9,9.2-39.1,23.8-61.4c15.4-23.7,37.8-48.5,65.5-71.5c6.2-5.2,12.6-10.2,19.3-15.2c8.3-6.1,16.7-11.7,25-17
			c30.8-19.4,61.6-33,88.9-39.9c-26.1,8.5-55.3,22.9-84.2,42.6c-1,0.7-2.1,1.4-3.1,2.1c-16,11.1-30.6,22.9-43.3,34.9
			c-40.8,38.4-62.4,78.2-52.6,101.5c0.7,1.6,1.5,3.1,2.5,4.6c10.5,15.5,36.7,18.2,69.8,9.9c2.3-0.6,4.5-1.2,6.8-1.9
			c10.6-3.1,21.8-7.2,33.4-12.3c2.8-1.2,5.6-2.5,8.4-3.8c0.3-0.1,0.6-0.3,0.9-0.4c36.5-18.1,64.5-39,70.6-51.5
			c1.3-2.7,1.6-5.1,0.7-6.9c-4.3-8.8-34.6-2.8-71.4,13.1c-3,1.3-5.9,2.6-9,4c2.5-2.3,5-4.6,7.6-6.8c4.2-3.6,8.5-7.1,13.1-10.6
			c7.2-5.4,14.4-10.4,21.6-14.7c33.5-25.2,50.4-49.1,46.8-58c-0.7-1.7-2.1-2.8-4.3-3.5c-7-2.2-19.7,0.4-35.2,6.8
			c-12.8,5.2-27.4,13-42.3,22.6l-2,1.3c0,0-0.4,0.2-0.4,0.2c0,0-7.1,4.7-7.1,4.7l4.1-7.5c6.1-11.1,16-22.8,28.3-33.6
			c9.1-7.9,19.4-15.3,30.5-21.8c4.2-2.5,8.4-4.8,12.6-6.8c4.3-2.1,8.6-4,12.8-5.6c12.2-4.8,23.9-7.8,34.1-8.6c-0.9,0-28.6,0-28.6,0
			c0,0-96.5,0-96.5,0H187.3H153.6z M459.6,80.5c-1.7,25.5,3.3,62.9,14.5,104.3c2,7.4,4.2,14.9,6.6,22.5c1.5,4.7,3,9.3,4.6,13.9
			c-0.9,1.4-1.8,2.7-2.7,4c-14,21.5-22.2,41.7-24.2,59.4c-5.9-19.8-10.4-41.5-12.9-64.5c-0.7-6.6-1.3-13.1-1.7-19.6
			C440.9,153.7,447,111.3,459.6,80.5z M180.2,113.7c0.3,0,0.6,0,1,0c0,0,63,0,63,0c5.4,0,9.6,1,12.5,3c3,2,4.1,4.7,3.4,7.9
			c0,0-7.5,33.9-7.5,33.9c0,0-22.2,0-22.2,0c0,0,7.3-33,7.3-33c0,0-55.6,0-55.6,0c0,0-20.1,90.8-20.1,90.8c0,0-7.2,32.9-7.2,32.9
			h55.6l0.1-0.2c0,0,11.1-50.3,11.1-50.3c0,0-26.1,0-26.1,0c0,0,2.5-11.4,2.5-11.4c0,0,48.3,0,48.3,0c0,0-13.9,62.8-13.9,62.8
			c-0.2,0.9-0.5,1.7-1,2.5c-1.1,2.1-3.1,3.9-5.9,5.3c-3.9,2-8.5,3-13.9,3h-63c-5.4,0-9.6-1-12.5-3c-2.9-2-4.1-4.6-3.4-7.8
			c0,0,27.8-125.5,27.8-125.5c0.7-3.2,3-5.8,6.8-7.9c0.1-0.1,0.3-0.1,0.4-0.2C171.2,114.8,175.4,113.8,180.2,113.7z M279,113.7
			c0,0,79.3,0,79.3,0c5.3,0,9.5,1,12.5,3c3,2,4.1,4.7,3.4,7.9c0,0-14.8,66.9-14.8,66.9c-0.7,3.2-3,5.8-6.9,7.8
			c-3.9,2-8.5,3.1-13.8,3.1c0,0-57.7,0-57.7,0l-11.1,50.3c0,0-1.8,8.3-1.8,8.3c0,0-21.7,0-21.7,0l1.7-7.5L279,113.7z M388.6,113.7
			c0,0,21.7,0,21.7,0c0,0-24.6,111.2-24.6,111.2c0,0-5.4,24.3-5.4,24.3h52c0.5,4,1.2,7.9,1.9,11.8c0,0-78.2,0-78.2,0
			c0,0,6.2-27.9,6.2-27.9C362.1,233.1,388.6,113.7,388.6,113.7z M298.1,125.6c0,0-14.4,65.1-14.4,65.1h54.2l14.4-65.1H298.1z
			 M252.5,271.2c0.2,0,0.4,0,0.6,0c2.5,0,4.7,0.4,6.5,1.3c1.9,0.9,3.2,2.2,4,3.9c0.7,1.7,0.9,3.6,0.5,5.7L264,283h-6.2
			c0,0,0.1-0.7,0.1-0.7c0.2-1.5,0-2.6-0.6-3.4c-0.1-0.1-0.2-0.2-0.3-0.3c-0.1-0.1-0.4-0.3-0.5-0.4c-0.9-0.5-2.2-0.9-4-0.9
			c-2.3,0-4.1,0.4-5.3,1.2c-1.2,0.8-1.9,1.7-2.1,2.8c-0.2,1.1,0.2,1.7,0.4,2c0,0,0,0,0.1,0.1c0.3,0.3,1.5,1,5.3,1.9
			c3.4,0.8,5.6,1.6,6.9,2.2c1.9,1,3.2,2.2,3.9,3.8c0.7,1.5,0.9,3.3,0.4,5.3c-0.4,1.9-1.4,3.6-2.8,5.3c-1.4,1.6-3.2,2.9-5.4,3.8
			c-2.1,0.9-4.5,1.4-6.9,1.4c-3.1,0-5.5-0.5-7.5-1.4c-2-1-3.5-2.5-4.3-4.4c-0.8-1.9-1-4.1-0.5-6.4l0.2-0.7h6.1l-0.1,0.7
			c-0.2,1.4,0,2.6,0.4,3.4c0.4,0.8,1,1.5,2.1,2c1.2,0.6,2.6,0.9,4.3,0.9c1.5,0,2.8-0.2,4-0.7c1.2-0.4,2.1-1,2.8-1.7
			c0.7-0.7,1.1-1.5,1.2-2.3c0.2-0.7,0.1-1.4-0.2-1.9c-0.3-0.5-1-1-2-1.4l-5.2-1.5c-2.9-0.7-4.9-1.4-6-2.1c-1.6-0.9-2.7-2.1-3.3-3.5
			c-0.6-1.4-0.6-2.9-0.3-4.6c0.4-1.8,1.3-3.5,2.6-5.1c1.4-1.6,3.1-2.8,5.2-3.6C248.5,271.7,250.5,271.3,252.5,271.2z M308.5,271.3
			c0.3,0,0.7,0,1,0c0,0,3.8,0.4,3.8,0.4l1.3,0.1c0,0-1.9,4.7-1.9,4.7c0,0-0.4,0.7-0.4,0.7l-2.9-0.3c-0.9,0-1.5,0.1-1.9,0.4
			c0,0-0.1,0.1-0.1,0.1c-0.1,0-0.1,0.1-0.2,0.2c-0.3,0.3-0.6,0.9-0.8,2c0,0-0.1,0.5-0.2,0.9c1.3,0,4.6,0,4.6,0l-1.2,5.3
			c0,0-3.4,0-4.5,0c-0.3,1.5-4.5,20.3-4.5,20.3c0,0-6.2,0-6.2,0c0,0,4-18,4.5-20.3c-1,0-3.6,0-3.6,0l1.2-5.3c0,0,2.5,0,3.5,0
			c0.2-0.7,0.4-1.7,0.4-1.7c0.4-1.7,0.8-2.9,1.3-3.8c0.7-1.2,1.7-2.2,2.9-2.9C305.7,271.8,307,271.5,308.5,271.3z M323.2,271.6
			c0,0-1.6,7.3-2,9.1c1.2,0,4,0,4,0L324,286c0,0-2.9,0-4,0c-0.3,1.5-2.9,12.8-2.9,12.8c0,0-0.2,1.4-0.2,1.8c0,0,0,0,0,0.1
			c0,0,0,0,0,0.1c0,0,0.1,0,0.1,0c0,0,0.6,0.1,0.6,0.1l2.9-0.2l-0.3,4.7l0.1,0.9l-4.2,0.5c-1.7,0-2.9-0.3-3.8-0.9
			c-0.9-0.6-1.5-1.4-1.7-2.5c0-0.2-0.1-0.5-0.1-0.9c0-0.8,0.1-2.1,0.6-4.3c0,0,2.2-10,2.7-12.1c-0.8,0-2.9,0-2.9,0
			c0,0,1.2-5.3,1.2-5.3s2.1,0,2.9,0c0.3-1.2,1.2-5.4,1.2-5.4l5-2.6L323.2,271.6z M126.9,271.8c0,0,24,0,24,0l-1.3,6c0,0-16,0-17.5,0
			c-0.3,1.2-1.4,6.1-1.8,7.9c2.2,0,15.2,0,15.2,0l-1.3,6c0,0-13.7,0-15.2,0c-0.3,1.5-3.3,14.7-3.3,14.7c0,0-6.4,0-6.4,0
			C119.2,306.3,126.9,271.8,126.9,271.8z M159,280.2c0.2,0,0.5,0,0.7,0c1.5,0,3,0.5,4.3,1.4c0,0,0.9,0.6,0.9,0.6l-3.3,5.4
			c0,0-0.9-0.6-0.9-0.6c-0.7-0.4-1.4-0.6-2.1-0.6c-0.6,0-1.3,0.2-1.9,0.6c-0.6,0.4-1.2,1-1.6,1.8c-0.7,1.3-1.2,2.8-1.6,4.4
			l-2.9,13.1h-6.2l5.7-25.6c0,0,5.8,0,5.8,0s-0.2,0.8-0.3,1.1c0.3-0.2,0.6-0.5,0.8-0.6C157.3,280.7,158.2,280.4,159,280.2z
			 M177.3,280.2c0.4,0,0.7,0,1.1,0c3.5,0,6.1,1.2,7.8,3.6c1.1,1.6,1.7,3.5,1.7,5.8c0,1.3-0.2,2.6-0.5,4.1l-0.5,1.9
			c0,0-15.6,0-17.4,0c0,0.4-0.1,0.7-0.1,1.1c0,1.3,0.3,2.4,0.9,3.1c0.3,0.4,0.6,0.7,1,1c0.7,0.4,1.6,0.7,2.6,0.7
			c1.3,0,2.4-0.3,3.4-1c1-0.6,1.9-1.6,2.8-3h6.6l-0.6,1.3c-1.3,2.6-3,4.6-5.2,6c-2.2,1.4-4.8,2.2-7.7,2.2c-3.8,0-6.6-1.2-8.3-3.6
			c-1.7-2.4-2.1-5.6-1.2-9.7c0.9-4.2,2.8-7.5,5.4-9.8C171.6,281.6,174.3,280.5,177.3,280.2z M205.1,280.2c0.4,0,0.7,0,1.1,0
			c3.5,0,6.1,1.2,7.8,3.6c1.1,1.6,1.7,3.5,1.7,5.8c0,1.2-0.2,2.6-0.5,4l-0.5,1.9c0,0-15.6,0-17.4,0c0,0.2,0,0.5-0.1,0.7
			c0,0.1,0,0.2,0,0.3c0,0,0,0,0,0.1c0,0.3,0,0.5,0.1,0.7c0.1,1,0.3,1.8,0.8,2.4c0.1,0.1,0.2,0.3,0.3,0.4c0.8,0.8,1.9,1.3,3.3,1.3
			c1.3,0,2.4-0.3,3.4-1c1-0.6,1.9-1.6,2.8-3h6.7c0,0-0.6,1.3-0.6,1.3c-1.3,2.6-3,4.6-5.2,6c-2.2,1.4-4.8,2.2-7.7,2.2
			c-3.8,0-6.6-1.2-8.3-3.6c-1.1-1.5-1.7-3.5-1.7-5.8c0-0.4,0-0.7,0.1-1.1c0.1-0.9,0.2-1.8,0.4-2.8c0.9-4.1,2.7-7.5,5.4-9.8
			C199.3,281.6,202.1,280.5,205.1,280.2z M280.7,280.2c0.4,0,0.7,0,1.1,0c3.5,0,6.3,1.2,8,3.6c1.8,2.4,2.2,5.6,1.3,9.6
			c-0.7,3.1-1.7,5.7-3.1,7.5s-3.1,3.3-5.2,4.4c-2.1,1-4.2,1.5-6.4,1.5c-3.6,0-6.3-1.2-8-3.6c-1.1-1.5-1.7-3.5-1.7-5.8
			c0-1.3,0.1-2.6,0.5-4.1c1-4.6,3.1-8.1,6.2-10.3C275.6,281.4,278.1,280.5,280.7,280.2z M374.4,280.2c0.4,0,0.9,0,1.3,0
			c2.1,0,3.8,0.2,5.1,0.7c1.4,0.5,2.3,1.3,2.9,2.2c0.5,0.9,0.8,1.9,0.8,3.3l-0.6,3.9c0,0-1.2,5.3-1.2,5.3c-1,4.5-1.2,6.2-1.3,6.8
			c-0.1,0.9,0,1.7,0.3,2.5c0,0,0.4,1.4,0.4,1.4c0,0-6.3,0-6.3,0c0,0-0.3-0.8-0.3-0.8c-0.1-0.4-0.1-0.9-0.1-1.3
			c-1.2,0.7-2.4,1.4-3.5,1.8c-1.6,0.5-3.2,0.9-4.9,0.9c-2.9,0-5-0.8-6.3-2.2c-1-1.1-1.4-2.4-1.4-3.9c0-0.6,0.1-1.2,0.2-1.8
			c0.3-1.3,0.8-2.5,1.7-3.6c0.8-1.1,1.8-1.9,2.9-2.6c1.1-0.6,2.2-1.1,3.5-1.4c0,0,3.8-0.6,3.8-0.6c2.9-0.3,5.1-0.8,6.7-1.2
			c0-0.2,0.1-0.4,0.1-0.4c0.2-1.1,0.2-1.9-0.1-2.3c0,0-0.1-0.1-0.1-0.1c-0.1-0.1-0.1-0.2-0.2-0.2c-0.6-0.5-1.7-0.7-3.2-0.7
			c-1.7,0-2.9,0.3-3.7,0.8c-0.8,0.5-1.6,1.5-2.3,2.9c0,0-6.4,0-6.4,0l0.6-1.3c0.8-1.8,1.7-3.2,2.8-4.4c1.1-1.1,2.7-2,4.5-2.6
			C371.2,280.6,372.7,280.3,374.4,280.2z M401.4,280.2c0.2,0,0.5,0,0.7,0c1.6,0,3,0.5,4.4,1.4c0,0,0.8,0.6,0.8,0.6l-3.3,5.4
			c0,0-0.9-0.6-0.9-0.6c-0.7-0.4-1.3-0.6-2.1-0.6c-0.6,0-1.3,0.2-1.9,0.6c-0.6,0.4-1.1,1-1.5,1.8c-0.7,1.3-1.2,2.8-1.6,4.4
			l-2.9,13.1c0,0-6.2,0-6.2,0l5.7-25.6c0,0,5.8,0,5.8,0s-0.1,0.8-0.2,1.1c0.3-0.2,0.5-0.5,0.8-0.6
			C399.7,280.7,400.5,280.4,401.4,280.2z M419.6,280.2c0.4,0,0.7,0,1.1,0c3.5,0,6.1,1.2,7.8,3.6c1.1,1.6,1.7,3.5,1.7,5.8
			c0,1.3-0.2,2.6-0.5,4.1l-0.4,1.9c0,0-15.6,0-17.4,0c0,0.4-0.1,0.7-0.1,1.1c0,1.3,0.3,2.4,0.9,3.1c0.1,0.1,0.2,0.3,0.3,0.4
			c0.1,0.1,0.2,0.2,0.2,0.2c0.8,0.7,1.8,1.1,3.1,1.1c1.3,0,2.4-0.3,3.4-1c1-0.6,1.9-1.6,2.8-3c0,0,6.7,0,6.7,0l-0.6,1.3
			c-1.3,2.6-3,4.6-5.2,6c-2.2,1.4-4.8,2.2-7.7,2.2c-3.8,0-6.5-1.2-8.3-3.6c-1.7-2.4-2.1-5.6-1.2-9.7c0.9-4.2,2.7-7.5,5.4-9.8
			C413.9,281.6,416.6,280.5,419.6,280.2z M326.3,280.7c0,0,6.3,0,6.3,0c0,0,0.8,15.2,0.8,15.4c0.3-0.5,0.5-1,0.5-1.1l7-14.3h5.8
			c0,0,0.5,15,0.5,15.1c0.2-0.3,7.9-15.1,7.9-15.1c0,0,6.3,0,6.3,0c0,0-13.9,25.6-13.9,25.6c0,0-5.7,0-5.7,0s-0.6-13.9-0.6-14.7
			c-2.4,4.8-7.1,14.7-7.1,14.7h-5.9L326.3,280.7z M177.5,285.6c-1.5,0.1-2.8,0.6-4,1.6c-1,0.8-1.7,1.9-2.2,3h10.5
			c0-0.2,0.1-0.4,0.1-0.6c0-1-0.2-1.7-0.5-2.2c-0.8-1.2-1.9-1.8-3.5-1.8C177.7,285.6,177.5,285.6,177.5,285.6z M205.2,285.6
			c-1.5,0.1-2.8,0.6-4,1.6c-1,0.8-1.6,1.9-2.2,3h10.5c0-0.2,0.1-0.4,0.1-0.6c0-1-0.2-1.7-0.5-2.2c-0.1-0.2-0.4-0.5-0.5-0.7
			c-0.7-0.7-1.7-1.1-3-1.1C205.4,285.6,205.3,285.6,205.2,285.6z M420,285.6c-1.5,0-2.9,0.6-4.2,1.6c-1,0.8-1.6,1.9-2.2,3H424
			c0-0.2,0.1-0.4,0.1-0.6c0-1-0.2-1.7-0.5-2.2c-0.7-1.2-1.9-1.8-3.5-1.8C420,285.6,420,285.6,420,285.6z M280.4,285.7
			c-1.4,0.2-2.7,0.8-3.9,1.9c-1.5,1.3-2.5,3.4-3.1,6.2c-0.3,1.2-0.4,2.2-0.4,3c0,1.2,0.2,2.2,0.7,2.9c0.1,0.2,0.3,0.4,0.4,0.5
			c0.8,0.8,1.8,1.2,3.1,1.2c1.7,0,3.2-0.6,4.7-2c1.5-1.3,2.5-3.5,3.1-6.3c0.6-2.6,0.5-4.5-0.3-5.8c-0.8-1.2-1.9-1.8-3.5-1.8
			C280.9,285.7,280.6,285.7,280.4,285.7z M376.6,295c-1.4,0.4-3.1,0.7-5.2,1c-1.6,0.2-2.7,0.5-3.4,0.7c-0.6,0.2-1,0.6-1.4,1
			c-0.4,0.4-0.6,0.9-0.7,1.4c0,0.2-0.1,0.4-0.1,0.6c0,0,0,0,0,0.1c0,0,0,0.1,0,0.2c0,0.1,0,0.2,0.1,0.3c0,0,0,0.1,0.1,0.1
			c0,0,0,0.1,0.1,0.2c0,0,0.1,0.1,0.1,0.2c0,0.1,0.1,0.2,0.2,0.2c0.4,0.5,1.3,0.7,2.5,0.7c1.3,0,2.6-0.3,3.8-0.9
			c1.2-0.6,2.1-1.4,2.8-2.5C375.9,297.5,376.3,296.4,376.6,295z"/>
		<g id="g80" transform="matrix(1.705222,0,0,1.705222,359.45027,563.90874)">
			<path id="path82" class="st1" d="M35.6-163.2C35.6-163.2,35.6-163.2,35.6-163.2c0.9,0,1.6,0.3,2,1.1c0.2,0.3,0.3,0.8,0.3,1.3
				c0,0.1,0,0.2,0,0.3h0c0-0.1,0-0.2,0-0.3c0-0.6-0.1-1-0.3-1.3C37.2-162.9,36.6-163.2,35.6-163.2z"/>
		</g>
		<g id="g4966" transform="matrix(1.705222,0,0,1.705222,-200.90733,-129.69426)">
			<g id="g84" transform="translate(125.1273,453.3934)">
				<path id="path86" class="st0" d="M35.6-127.2H43l3.4-14h12.1l1.6-6H47.9l2-9h13l1.6-7H44L35.6-127.2z"/>
			</g>
			<g id="g88" transform="translate(151.0773,463.3934)">
				<path id="path90" class="st0" d="M43.1-137.2l2.2-9.4c1.2-5.1,3.7-9.6,8.4-9.6c0.4,0,0.8,0.2,1.1,0.3l1.8-7.2
					c-0.4,0-0.9-0.1-1.4-0.1c-3.5,0-6.4,2.4-8.3,5.9h-0.2c0.3-1.7,0.5-3.3,0.7-4.9H41c-0.4,2.1-0.9,6.2-1.8,9.8l-3.7,15.2H43.1z"/>
			</g>
			<g id="g92" transform="translate(171.7073,463.3934)">
				<path id="path94" class="st0" d="M55.6-144c-2.1,1-4.4,0.8-7.2,0.8c-2.2,0-3.9-0.4-4.8-1.1c-0.5-0.8-0.7-2.1-0.6-2.9
					c10.1,0.3,16.5-2.1,16.8-8.5c0.2-4.8-3.3-7.5-8.4-7.5c-9.2,0-15.2,8.1-15.5,15.9c-0.3,6.8,3.2,10.1,10.4,10.1
					c2.8,0,6.5-0.3,9.5-1.2L55.6-144z M52.9-155.7c-0.1,2.4-3.1,2.5-8.8,2.5c0.6-2.1,2.8-4,6.2-4C52-157.2,52.9-156.6,52.9-155.7z"
					/>
			</g>
			<g id="g96" transform="translate(198.2273,463.3934)">
				<path id="path98" class="st0" d="M55.6-144c-2.1,1-4.4,0.8-7.2,0.8c-2.2,0-3.9-0.4-4.8-1.1c-0.5-0.8-0.7-2.1-0.7-2.9
					c10.1,0.3,16.5-2.1,16.9-8.5c0.2-4.8-3.3-7.5-8.4-7.5c-9.2,0-15.2,8.1-15.6,15.9c-0.3,6.8,3.2,10.1,10.4,10.1
					c2.8,0,6.5-0.3,9.5-1.2L55.6-144z M52.9-155.7c-0.1,2.4-3.1,2.5-8.9,2.5c0.6-2.1,2.8-4,6.2-4C52-157.2,52.9-156.6,52.9-155.7z"
					/>
			</g>
			<g id="g100" transform="translate(234.1373,463.3934)">
				<path id="path102" class="st0" d="M58.3-137.2c0.1-3.2,0.8-8.1,1.6-11.4l3.2-13.6c-2-0.7-5.2-1-8.3-1c-12.4,0-18.6,9.2-19,17.8
					c-0.3,5.4,2.7,8.2,7.2,8.2c2.9,0,6.3-1.4,8.9-5.7H52c-0.2,2.1-0.4,4.1-0.6,5.7H58.3z M53.2-151.5c-1.5,6.4-4.4,8.3-6.7,8.3
					c-2.1,0-3-1.5-2.8-3.6c0.2-4.8,4.1-10.4,8.9-10.4c0.8,0,1.4-0.1,2-0.3L53.2-151.5z"/>
			</g>
			<g id="g104" transform="translate(261.7673,463.3934)">
				<path id="path106" class="st0" d="M35.6-138.4c1.4,1.1,4.5,1.1,7.6,1.2c6.7,0.1,11.8-2.9,12.1-8.3c0.2-3.6-2.6-5.7-5.3-7.2
					c-2-0.9-3-1.9-2.9-2.9c0.1-1.4,1.4-1.6,3.4-1.6c2.2,0,4,0.3,5,0.5l2-5.4c-1.2-0.7-3.5-1.1-6.4-1.1c-6.5,0-11.3,3.4-11.6,8.7
					c-0.2,3.2,2.2,5.4,5,6.9c2.3,1.2,3.1,2.1,3,3.3c-0.1,1.3-1.2,1.1-3.3,1.1c-2.4,0-5.1-0.3-6.5-0.5L35.6-138.4z"/>
			</g>
			<g id="g108" transform="translate(294.2173,452.3934)">
				<path id="path110" class="st0" d="M43-126.2l6-25h-7.4l-6.1,25H43z M46.5-154.2c2.5,0,4.8-2.1,4.9-5.7c0.1-2.4-1.5-3.3-3.8-3.3
					c-2.4,0-4.6,1.6-4.8,3.9C42.7-156.9,44.3-154.2,46.5-154.2z"/>
			</g>
			<g id="g112" transform="translate(308.5073,464.0834)">
				<path id="path114" class="st0" d="M43-137.9l2.6-11.3c1.4-5.7,4.3-7.7,6.8-7.7c1.9,0,2.5,0.8,2.4,2c0,1-0.2,2-0.4,2.9L51-137.9
					h7.5l3.5-14.8c0.3-1.3,0.6-3.2,0.6-4.3c0.2-4.5-2-6.2-6.2-6.2c-3.3,0-6.5,1.5-9.1,4.9h-0.1l0.7-4.6h-6.6c-0.4,2.1-1,4.7-1.8,7.8
					l-4.1,17.2H43z"/>
			</g>
			<g id="g116" transform="translate(348.0673,453.3934)">
				<path id="path118" class="st0" d="M35.6-127.2H43l3.4-14h12.1l1.6-6H47.9l2-9h13l1.6-7H44L35.6-127.2z"/>
			</g>
			<g id="g120" transform="translate(374.0173,463.3934)">
				<path id="path122" class="st0" d="M43.1-137.2l2.2-9.4c1.2-5.1,3.7-9.6,8.4-9.6c0.4,0,0.8,0.2,1.1,0.3l1.8-7.2
					c-0.4,0-0.9-0.1-1.4-0.1c-3.5,0-6.4,2.4-8.3,5.9h-0.2c0.3-1.7,0.5-3.3,0.7-4.9H41c-0.4,2.1-0.9,6.2-1.8,9.8l-3.7,15.2H43.1z"/>
			</g>
			<g id="g124" transform="translate(394.6473,463.3934)">
				<path id="path126" class="st0" d="M55.6-144c-2.1,1-4.4,0.8-7.2,0.8c-2.2,0-3.8-0.4-4.8-1.1c-0.5-0.8-0.7-2.1-0.6-2.9
					c10.1,0.3,16.5-2.1,16.8-8.5c0.2-4.8-3.3-7.5-8.4-7.5c-9.2,0-15.2,8.1-15.5,15.9c-0.3,6.8,3.2,10.1,10.4,10.1
					c2.8,0,6.5-0.3,9.5-1.2L55.6-144z M52.9-155.7c-0.1,2.4-3.1,2.5-8.9,2.5c0.6-2.1,2.8-4,6.2-4C52-157.2,52.9-156.6,52.9-155.7z"
					/>
			</g>
			<g id="g128" transform="translate(421.1673,463.3934)">
				<path id="path130" class="st0" d="M55.6-144c-2.1,1-4.4,0.8-7.2,0.8c-2.2,0-3.8-0.4-4.8-1.1c-0.5-0.8-0.7-2.1-0.6-2.9
					c10.1,0.3,16.5-2.1,16.8-8.5c0.2-4.8-3.3-7.5-8.4-7.5c-9.2,0-15.2,8.1-15.6,15.9c-0.3,6.8,3.2,10.1,10.4,10.1
					c2.8,0,6.5-0.3,9.5-1.2L55.6-144z M52.9-155.7c-0.1,2.4-3.1,2.5-8.9,2.5c0.6-2.1,2.8-4,6.2-4C52-157.2,52.9-156.6,52.9-155.7z"
					/>
			</g>
			<g id="g132" transform="translate(447.5473,452.3934)">
				<path id="path134" class="st0" d="M58.9-163.2l-2.8,11.4c-1-0.4-2.4-0.4-3.4-0.4c-9.6,0-16.4,8.2-16.8,17.1
					c-0.3,6.3,3,8.9,7.3,8.9c3,0,6.2-1.3,8.6-4.8h0.1l-0.6,4.8h6.8c0.3-3,1-6.6,1.7-9.8l6.5-27.2H58.9z M53-138.8
					c-1.2,4.9-3.9,6.6-6.1,6.6c-2.2,0-3.4-1.5-3.2-4.2c0.2-5,3.7-9.8,8.1-9.8c1.2,0,2.3,0.2,2.9,0.5L53-138.8z"/>
			</g>
			<g id="g136" transform="translate(477.2573,463.3934)">
				<path id="path138" class="st0" d="M46.2-137.2c8.7,0,15.4-6.6,15.9-15.6c0.3-5.9-3.4-10.4-10.2-10.4c-9,0-15.5,7.3-15.9,16.1
					C35.6-140.7,39.7-137.2,46.2-137.2z M47.3-143.2c-2.5,0-3.9-1.6-3.8-4c0.2-4,2.7-10,7-10c3,0,3.9,2.3,3.8,4.5
					C54.1-148.3,51.4-143.2,47.3-143.2z"/>
			</g>
			<g id="g140" transform="translate(505.8173,463.3934)">
				<path id="path142" class="st0" d="M42.8-137.2l2.7-11.4c1.1-5.1,4-8.6,6.5-8.6c1.8,0,2.3,1.3,2.2,3.1c-0.1,0.9-0.2,1.9-0.5,2.9
					l-3.3,14h7.2l2.7-11.5c1.2-5.2,3.9-8.5,6.4-8.5c1.7,0,2.4,1.2,2.3,3c-0.1,1-0.3,2.1-0.5,3.1l-3.2,13.9h7.2L76-152
					c0.3-1.3,0.6-3.4,0.6-4.5c0.2-4.4-1.9-6.7-5.8-6.7c-3.3,0-6.5,1.5-9,4.7c-0.1-2.3-1.7-4.7-5.8-4.7c-3.3,0-6.4,1.5-8.9,4.8H47
					l0.7-3.8h-6.4c-0.4,2.1-0.9,4.7-1.7,7.8l-4,17.2H42.8z"/>
			</g>
		</g>
		<path id="path2592" sodipodi:nodetypes="cccccssccccscccsccc" class="st2" d="M463.6,312.1c0.7,1.8,1.4,3.6,2.1,5.3
			c1.1,2.4,2.4,4.6,3.9,6.7c8.3,11.3,22.3,17.5,40,19.1h19.1c6-0.5,12.3-1.3,18.9-2.6c11.3-2.2,23.3-5.6,35.7-10.1
			c9.4-3.4,19.1-7.5,28.9-12.2c21.4-10.3,43.5-23.5,65.2-39.4c7.1-5.3,14-10.6,20.6-16.1c6-5,11.8-10.1,17.3-15.3
			c15.4-14.9,27.1-29.9,33.6-43.2c6.9-13.8,8.2-25.6,2.6-33c-3.4-4.6-9.2-7-16.6-7.6c33.5-25.1,53-55.6,46-74.8
			c-2.2-6.1-7.1-10.7-14.1-13.2c-3.1-1.1-6.6-1.8-10.4-2.2H746c-14.4,1-35.3,6.2-53,14.9"/>
	</g>
</g>
</svg>
