<?xml version="1.0" encoding="utf-8"?>
<!-- Generator: Adobe Illustrator 25.4.1, SVG Export Plug-In . SVG Version: 6.00 Build 0)  -->
<svg version="1.1" id="Слой_1" xmlns="http://www.w3.org/2000/svg" xmlns:xlink="http://www.w3.org/1999/xlink" x="0px" y="0px"
	 viewBox="0 0 800 800" style="enable-background:new 0 0 800 800;" xml:space="preserve">
<style type="text/css">
	.st0{fill:none;stroke:#333333;stroke-width:50;stroke-miterlimit:133.3333;}
	.st1{fill:none;stroke:#333333;stroke-width:50;stroke-linecap:round;stroke-miterlimit:133.3333;}
</style>
<path class="st0" d="M606,268l15.4-15.4c25.6-25.6,67.1-25.6,92.7,0c25.6,25.6,25.6,67.1,0,92.7l-15.4,15.5 M606,268
	c0,0,1.9,32.8,30.9,61.8s61.8,30.9,61.8,30.9 M606,268L464,410c-9.6,9.6-14.4,14.4-18.6,19.7c-4.9,6.3-9.1,13-12.5,20.2
	c-2.9,6.1-5,12.5-9.3,25.4l-13.8,41.3l-4.5,13.4 M698.7,360.7l-142,142c-9.6,9.6-14.4,14.4-19.7,18.6c-6.3,4.9-13,9.1-20.2,12.5
	c-6.1,2.9-12.5,5-25.4,9.3L450,556.8l-13.4,4.5 M436.6,561.3l-13.4,4.5c-6.4,2.1-13.4,0.5-18.1-4.3s-6.4-11.7-4.3-18.1l4.5-13.4
	 M436.6,561.3L405.4,530"/>
<path class="st1" d="M266.7,433.3H350"/>
<path class="st1" d="M266.7,300h216.7"/>
<path class="st1" d="M266.7,566.7h50"/>
<path class="st1" d="M100,466.7V333.3c0-125.7,0-188.6,39.1-227.6c39-39,101.9-39,227.6-39h66.7c125.7,0,188.6,0,227.6,39.1
	 M700,466.7c0,125.7,0,188.6-39.1,227.6 M139.1,694.3c39.1,39.1,101.9,39.1,227.6,39.1h66.7c125.7,0,188.6,0,227.6-39.1
	 M660.9,694.3c31.4-31.4,37.6-78.3,38.8-160.9"/>
</svg>
