<?xml version="1.0" encoding="utf-8"?>
<!-- Generator: Adobe Illustrator 25.4.1, SVG Export Plug-In . SVG Version: 6.00 Build 0)  -->
<svg version="1.1" id="Слой_1" xmlns="http://www.w3.org/2000/svg" xmlns:xlink="http://www.w3.org/1999/xlink" x="0px" y="0px"
	 viewBox="0 0 800 800" style="enable-background:new 0 0 800 800;" xml:space="preserve">
<style type="text/css">
	.st0{fill:#FF330A;}
	.st1{fill:none;stroke:#FF330A;stroke-width:50;stroke-linecap:round;stroke-miterlimit:133.3333;}
</style>
<path class="st0" d="M183.5,380.3l17.7,17.7L183.5,380.3z M100,498.4H75H100z M419.7,616.5L402,598.8L419.7,616.5z M301.6,700v25
	V700z M380.3,183.5l-17.7-17.7L380.3,183.5z M441.4,594.8c9.8,9.8,25.6,9.8,35.4,0s9.8-25.6,0-35.4L441.4,594.8z M240.5,323.3
	c-9.8-9.8-25.6-9.8-35.4,0c-9.8,9.8-9.8,25.6,0,35.4L240.5,323.3z M535.8,535.8c9.8-9.8,9.8-25.6,0-35.4s-25.6-9.8-35.4,0
	L535.8,535.8z M615.6,385.2c-9.7,9.8-9.7,25.6,0.1,35.4c9.8,9.7,25.6,9.7,35.4-0.1L615.6,385.2z M201.2,398L398,201.2l-35.4-35.4
	L165.8,362.6L201.2,398z M201.2,598.8c-28.3-28.3-47.8-47.8-60.4-64.4c-12.2-16-15.8-26.3-15.8-36H75c0,25,10.4,45.8,26,66.3
	c15.2,19.9,37.5,42.1,64.8,69.5L201.2,598.8z M165.8,362.6c-27.3,27.3-49.7,49.6-64.8,69.5c-15.6,20.5-26,41.3-26,66.3h50
	c0-9.6,3.5-20,15.8-36c12.7-16.6,32.1-36.1,60.4-64.4L165.8,362.6z M402,598.8c-28.3,28.3-47.8,47.8-64.4,60.4
	c-16,12.2-26.3,15.8-36,15.8v50c25,0,45.8-10.4,66.3-26c19.9-15.2,42.1-37.5,69.5-64.8L402,598.8z M165.8,634.2
	c27.3,27.3,49.6,49.6,69.5,64.8c20.5,15.6,41.3,26,66.3,26v-50c-9.6,0-20-3.5-36-15.8c-16.6-12.7-36.1-32.1-64.4-60.4L165.8,634.2z
	 M598.8,201.2c28.3,28.3,47.8,47.8,60.4,64.4c12.2,16,15.8,26.3,15.8,36h50c0-25-10.4-45.8-26-66.3c-15.2-19.9-37.5-42.1-64.8-69.5
	L598.8,201.2z M634.2,165.8c-27.3-27.3-49.6-49.7-69.5-64.8c-20.5-15.6-41.3-26-66.3-26v50c9.6,0,20,3.5,36,15.8
	c16.6,12.7,36.1,32.1,64.4,60.4L634.2,165.8z M398,201.2c28.3-28.3,47.8-47.8,64.4-60.4c16-12.2,26.3-15.8,36-15.8V75
	c-25,0-45.8,10.4-66.3,26c-19.9,15.2-42.1,37.5-69.5,64.8L398,201.2z M476.7,559.5L240.5,323.3l-35.4,35.4l236.2,236.2L476.7,559.5z
	 M500.4,500.4L402,598.8l35.4,35.4l98.4-98.4L500.4,500.4z M651.1,420.4c22-22.2,40.2-41.2,52.7-59.1c12.9-18.5,21.2-37.5,21.2-59.8
	h-50c0,8.7-2.9,17.8-12.1,31c-9.7,13.8-24.9,30-47.3,52.6L651.1,420.4z"/>
<path class="st1" d="M300,700h400"/>
</svg>
