<?xml version="1.0" encoding="utf-8"?>
<!-- Generator: Adobe Illustrator 25.4.1, SVG Export Plug-In . SVG Version: 6.00 Build 0)  -->
<svg version="1.1" id="Слой_1" xmlns="http://www.w3.org/2000/svg" xmlns:xlink="http://www.w3.org/1999/xlink" x="0px" y="0px"
	 viewBox="0 0 800 800" style="enable-background:new 0 0 800 800;" xml:space="preserve">
<style type="text/css">
	.st0{fill:none;stroke:#009245;stroke-width:50;stroke-linecap:round;stroke-miterlimit:133.3333;}
	.st1{fill:none;stroke:#009245;stroke-width:50;stroke-linecap:round;stroke-linejoin:round;stroke-miterlimit:133.3333;}
</style>
<path class="st0" d="M66.7,400c0-157.1,0-235.7,48.8-284.5c41.4-41.4,104.1-47.7,217.9-48.6 M733.3,400c0-157.1,0-235.7-48.8-284.5
	c-41.4-41.4-104.1-47.7-217.8-48.6"/>
<path class="st0" d="M333.3,733.3c-93.3,0-140,0-175.7-18.2c-31.4-16-56.9-41.5-72.8-72.8C66.7,606.7,66.7,560,66.7,466.7
	s0-140,18.2-175.7c16-31.4,41.5-56.9,72.8-72.8C193.3,200,240,200,333.3,200h133.3c93.3,0,140,0,175.7,18.2
	c31.4,16,56.9,41.5,72.8,72.8c18.2,35.7,18.2,82.3,18.2,175.7s0,140-18.2,175.7c-16,31.4-41.5,56.9-72.8,72.8
	c-35.7,18.2-82.3,18.2-175.7,18.2"/>
<path class="st1" d="M400,566.7v-200 M400,366.7l83.3,83.3 M400,366.7L316.7,450"/>
</svg>
