<?xml version="1.0" encoding="utf-8"?>
<!-- Generator: Adobe Illustrator 25.4.1, SVG Export Plug-In . SVG Version: 6.00 Build 0)  -->
<svg version="1.1" id="Слой_1" xmlns="http://www.w3.org/2000/svg" xmlns:xlink="http://www.w3.org/1999/xlink" x="0px" y="0px"
	 viewBox="0 0 800 800" style="enable-background:new 0 0 800 800;" xml:space="preserve">
<style type="text/css">
	.st0{fill:#333333;}
</style>
<path class="st0" d="M400,7.25c-12.89,0-25.59,4.88-35.35,14.65L289.55,97c-6.56,6.56-15.47,10.25-24.75,10.25H185
	c-46.75,0-85,38.25-85,85v79.8c0,9.28-3.69,18.18-10.25,24.75L39.4,347.15c-33.19,33.19-33.19,87.01,0,120.2l50.35,50.35
	c6.56,6.56,10.25,15.47,10.25,24.75v79.8c0,46.75,38.25,85,85,85h79.8c9.28,0,18.18,3.69,24.75,10.25l50.35,50.35
	c33.19,33.19,87.01,33.19,120.2,0l50.35-50.35c6.56-6.56,15.47-10.25,24.75-10.25H615c46.75,0,85-38.25,85-85v-79.8
	c0-9.28,3.69-18.18,10.25-24.75l50.35-50.35c33.19-33.19,33.19-87.01,0-120.2l-50.35-50.35c-6.56-6.56-10.25-15.47-10.25-24.75
	v-79.8c0-46.75-38.25-85-85-85h-79.8c-9.28,0-18.18-3.69-24.75-10.25l-75.1-75.1C425.59,12.13,412.89,7.25,400,7.25L400,7.25z
	 M400,257.25c12.89,0,25.59,4.88,35.35,14.65l100,100c9.18,9.38,14.45,22.07,14.26,35.35H550v15c0,19.33-15.67,35-35,35h-30
	c-19.33,0-35,15.67-35,35v30c0,19.33-15.67,35-35,35h-30c-19.33,0-35-15.67-35-35v-30c0-19.33-15.67-35-35-35h-30
	c-19.33,0-35-15.67-35-35v-15h0.39c-0.2-13.28,5.08-25.98,14.26-35.35l100-100C374.41,262.13,387.11,257.25,400,257.25z"/>
</svg>
