<?xml version="1.0" encoding="utf-8"?>
<!-- Generator: Adobe Illustrator 25.4.1, SVG Export Plug-In . SVG Version: 6.00 Build 0)  -->
<svg version="1.1" id="Слой_1" xmlns="http://www.w3.org/2000/svg" xmlns:xlink="http://www.w3.org/1999/xlink" x="0px" y="0px"
	 viewBox="0 0 800 800" style="enable-background:new 0 0 800 800;" xml:space="preserve">
<style type="text/css">
	.st0{fill:none;stroke:#1D1D1B;stroke-width:50;stroke-linecap:round;stroke-miterlimit:133.3333;}
	.st1{fill:none;stroke:#1D1D1B;stroke-width:25;stroke-linecap:round;stroke-linejoin:round;stroke-miterlimit:133.3333;}
</style>
<path class="st0" d="M66.7,400c0-157.1,0-235.7,48.8-284.5C155.4,75.6,215,68.3,321,67c4.1,0,8.2-0.1,12.4-0.1H494 M733.3,400
	c0-157.1,6-189.7-42.8-238.5C658.1,129,633,125.2,560,121.6c-6.5-0.3-30.2-55.9-66-54.7c-81.6,2.8-182.4,0.7-199,0.6"/>
<path class="st0" d="M395.8,733.4c-3.4,0-69.2-0.1-72.5-0.1c-86.7,0-131.4-0.7-165.8-18.2c-31.4-16-56.9-41.5-72.8-72.8
	C66.7,606.7,66.7,560,66.7,466.7s0-140,18.2-175.7c16-31.4,41.5-56.9,72.8-72.8C193.3,200,240,200,333.3,200h133.3
	c93.3,0,140,0,175.7,18.2c31.4,16,56.9,41.5,72.8,72.8c18.2,35.7,18.2,82.3,18.2,175.7s0,140-18.2,175.7
	c-16,31.4-41.5,56.9-72.8,72.8c-14,7.1-29.7,11.5-49.2,14.1c-17.5,2.4-38.1,3.4-63.4,3.8c-18.4,0.3,49.6-0.7,25.7-0.7"/>
<polyline class="st1" points="140.2,410.2 140.2,508.4 178.9,508.4 209.2,508.4 142,508.4 "/>
<polyline class="st1" points="598.8,410.2 598.8,508.4 637.6,508.4 667.9,508.4 600.6,508.4 "/>
<circle class="st1" cx="289.2" cy="459.3" r="50.4"/>
<path class="st1" d="M463.6,512.4l9.7-27.8l32.8-78.4l47.4,106.2c0,0-41.8-27.8-62.5-27.8h0"/>
<path class="st1" d="M427.2,408.9c-0.2,0-0.5,0-0.7,0c-65.9,0.7-65.7,100.8,0.7,100.8"/>
</svg>
